<svg width="95" height="129" viewBox="0 0 95 129" fill="none" xmlns="http://www.w3.org/2000/svg">
<path d="M47.7261 1.73022L52.7432 0.124756C57.2919 0.124756 59.5663 6.14522 59.5663 18.1862L65.7875 64.5437L66.5902 65.3465L89.6687 56.9178C92.7458 56.9178 94.4181 59.2591 94.6857 63.9417C94.6857 67.4202 86.1902 71.6345 69.1991 76.5847L68.3964 76.986V77.7888C68.3964 80.5983 72.8114 95.2481 81.6414 121.738V122.14C81.6414 124.681 79.5677 126.822 75.4202 128.561C71.5404 128.561 68.9984 123.946 67.7943 114.714C64.7172 108.025 60.9711 96.9874 56.5561 81.6017H55.7534C38.2271 85.214 29.464 88.2911 29.464 90.8331C19.8313 111.704 12.5398 122.14 7.58967 122.14C4.78012 122.14 3.10777 120.333 2.57261 116.721C2.57261 113.51 6.118 107.222 13.2088 97.857L16.4197 90.8331H11.4026L7.58967 91.6358C2.63951 90.4317 0.164429 87.8898 0.164429 84.0099C2.17125 79.3273 5.11459 76.986 8.99444 76.986L14.0115 78.9929C21.5036 78.9929 25.2497 76.2502 25.2497 70.7649C32.0729 54.7103 39.565 31.6988 47.7261 1.73022ZM49.5322 38.2544L37.692 73.9758C48.6626 71.8352 54.1479 69.7615 54.1479 67.7546C52.1411 48.0878 50.6025 38.2544 49.5322 38.2544Z" fill="#3F3F3F"/>
</svg>
